<?xml version="1.0" encoding="UTF-8" standalone="no"?>
<svg
   xmlns:dc="http://purl.org/dc/elements/1.1/"
   xmlns:cc="http://creativecommons.org/ns#"
   xmlns:rdf="http://www.w3.org/1999/02/22-rdf-syntax-ns#"
   xmlns:svg="http://www.w3.org/2000/svg"
   xmlns="http://www.w3.org/2000/svg"
   viewBox="0 0 400 526.25"
   height="526.25"
   width="400"
   xml:space="preserve"
   version="1.1"
   id="svg2"><metadata
     id="metadata8"><rdf:RDF><cc:Work
         rdf:about=""><dc:format>image/svg+xml</dc:format><dc:type
           rdf:resource="http://purl.org/dc/dcmitype/StillImage" /></cc:Work></rdf:RDF></metadata><defs
     id="defs6"><clipPath
       id="clipPath18"
       clipPathUnits="userSpaceOnUse"><path
         id="path20"
         d="M 0,0 320,0 320,421 0,421 0,0 Z" /></clipPath><clipPath
       id="clipPath136"
       clipPathUnits="userSpaceOnUse"><path
         id="path138"
         d="m 191,0 126,0 0,30.99999 -126,0 L 191,0 Z" /></clipPath></defs><g
     transform="matrix(1.25,0,0,-1.25,0,526.25)"
     id="g10"><g
       id="g12" /><g
       id="g14"><g
         clip-path="url(#clipPath18)"
         id="g16"><path
           id="path22"
           style="fill:#ffffff;fill-opacity:0;fill-rule:nonzero;stroke:none"
           d="M 0,0 320,0 320,421 0,421 0,0 Z" /><path
           id="path24"
           style="fill:#0070c0;fill-opacity:1;fill-rule:nonzero;stroke:none"
           d="m 2.5,352.5 157.5,67 157.5,-67 -315,0 z" /><g
           transform="matrix(7.874016e-5,0,0,-7.874016e-5,2.5,419.5)"
           id="g26"><path
             id="path28"
             style="fill:none;stroke:#0d0d0d;stroke-width:12700;stroke-linecap:butt;stroke-linejoin:miter;stroke-miterlimit:8;stroke-dasharray:none;stroke-opacity:1"
             d="M 0,850900 2000250,0 4000500,850900 0,850900 Z" /></g><g
           transform="translate(110.3379,363.8607)"
           id="g30"><text
             id="text32"
             style="font-variant:normal;font-weight:normal;font-size:18px;font-family:PTSans;-inkscape-font-specification:PTSans-Regular;writing-mode:lr-tb;fill:#ffffff;fill-opacity:1;fill-rule:nonzero;stroke:none"
             transform="scale(1,-1)"><tspan
               id="tspan34"
               y="0"
               x="0 12.0006 22.003201 30.997801 41.000401 45.999001 56.001598 66.004204 76.006798 82.013397 90.017998">Open Source</tspan></text>
</g><path
           id="path36"
           style="fill:#0070c0;fill-opacity:1;fill-rule:nonzero;stroke:none"
           d="m 2.5,234.3332 c 0,3.9581 3.208655,7.1668 7.166732,7.1668 l 300.666568,0 c 3.9581,0 7.1667,-3.2087 7.1667,-7.1668 l 0,-28.6664 c 0,-3.9581 -3.2086,-7.1668 -7.1667,-7.1668 l -300.666568,0 C 5.708655,198.5 2.5,201.7087 2.5,205.6668 l 0,28.6664 z" /><g
           transform="matrix(7.874016e-5,0,0,-7.874016e-5,2.5,241.5)"
           id="g38"><path
             id="path40"
             style="fill:none;stroke:#0d0d0d;stroke-width:12700;stroke-linecap:butt;stroke-linejoin:miter;stroke-miterlimit:8;stroke-dasharray:none;stroke-opacity:1"
             d="M 0,91018.12 C 0,40750.2 40749.92,0 91017.5,0 L 3909482,0 c 50268,0 91018,40750.2 91018,91018.12 l 0,364063.78 c 0,50267.9 -40750,91018.1 -91018,91018.1 l -3818464.5,0 C 40749.92,546100 0,505349.8 0,455081.9 L 0,91018.12 Z" /></g><g
           transform="translate(99.84047,214.2313)"
           id="g42"><text
             id="text44"
             style="font-variant:normal;font-weight:normal;font-size:18px;font-family:PTSans;-inkscape-font-specification:PTSans-Regular;writing-mode:lr-tb;fill:#ffffff;fill-opacity:1;fill-rule:nonzero;stroke:none"
             transform="scale(1,-1)"><tspan
               id="tspan46"
               y="0"
               x="0 12.0006 22.003201 30.007799 40.010399 55.016998 64.011597 74.014198 80.020798 89.015404 95.022003 100.0206 110.0232">Documentation</tspan></text>
</g><path
           id="path48"
           style="fill:#0070c0;fill-opacity:1;fill-rule:nonzero;stroke:none"
           d="m 2.5,118.833 c 0,8.6526 7.014345,15.667 15.66698,15.667 l 283.66602,0 c 8.6527,0 15.667,-7.0144 15.667,-15.667 l 0,-62.66599 C 317.5,47.51436 310.4857,40.5 301.833,40.5 l -283.66602,0 C 9.514345,40.5 2.5,47.51436 2.5,56.16701 l 0,62.66599 z" /><g
           transform="matrix(7.874016e-5,0,0,-7.874016e-5,2.5,134.5)"
           id="g50"><path
             id="path52"
             style="fill:none;stroke:#0d0d0d;stroke-width:12700;stroke-linecap:butt;stroke-linejoin:miter;stroke-miterlimit:8;stroke-dasharray:none;stroke-opacity:1"
             d="M 0,198971 C 0,89082.37 89082.19,0 198970.6,0 L 3801529,0 c 109889,0 198971,89082.37 198971,198971 l 0,795857.9 c 0,109889.1 -89082,198971.1 -198971,198971.1 l -3602558.4,0 C 89082.19,1193800 0,1104718 0,994828.9 L 0,198971 Z" /></g><g
           transform="translate(115.338,92.5719)"
           id="g54"><text
             id="text56"
             style="font-variant:normal;font-weight:normal;font-size:18px;font-family:PTSans;-inkscape-font-specification:PTSans-Regular;writing-mode:lr-tb;fill:#ffffff;fill-opacity:1;fill-rule:nonzero;stroke:none"
             transform="scale(1,-1)"><tspan
               id="tspan58"
               y="0"
               x="0 10.0008 20.0016 35.006401 50.0112 60.012001 70.012802 75.009598 81.014397">Community</tspan></text>
</g><g
           transform="translate(37.33799,71.5719)"
           id="g60"><text
             id="text62"
             style="font-variant:normal;font-weight:normal;font-size:18px;font-family:PTSans;-inkscape-font-specification:PTSans-Regular;writing-mode:lr-tb;fill:#ffffff;fill-opacity:1;fill-rule:nonzero;stroke:none"
             transform="scale(1,-1)"><tspan
               id="tspan64"
               y="0"
               x="0 5.0004001 17.0028 25.999201 34.995602 39.995998 45.986401 55.990799 63.9972 70.0056 80.010002 90.014397 100.0188 110.0232 119.0196 125.01 134.00639 139.9968 144.99719 155.0016 165.006 168.00841 182.0088 191.0052 201.0096 207 215.9964 220.9968 225.99719 231.98759 239.994">(Healthy Cooperation Mentality)</tspan></text>
</g><path
           id="path66"
           style="fill:#0070c0;fill-opacity:1;fill-rule:nonzero;stroke:none"
           d="m 2.5,328.8331 c 0,8.6526 7.014327,15.6669 15.66694,15.6669 l 120.66616,0 c 8.6526,0 15.6669,-7.0143 15.6669,-15.6669 l 0,-62.6662 c 0,-8.6526 -7.0143,-15.6669 -15.6669,-15.6669 l -120.66616,0 C 9.514327,250.5 2.5,257.5143 2.5,266.1669 l 0,62.6662 z" /><g
           transform="matrix(7.874016e-5,0,0,-7.874016e-5,2.5,344.5)"
           id="g68"><path
             id="path70"
             style="fill:none;stroke:#0d0d0d;stroke-width:12700;stroke-linecap:butt;stroke-linejoin:miter;stroke-miterlimit:8;stroke-dasharray:none;stroke-opacity:1"
             d="M 0,198970.2 C 0,89081.99 89081.96,0 198970.1,0 L 1731430,0 c 109888,0 198970,89081.99 198970,198970.2 l 0,795859.6 c 0,109888.2 -89082,198970.2 -198970,198970.2 l -1532459.9,0 C 89081.96,1193800 0,1104718 0,994829.8 L 0,198970.2 Z" /></g><g
           transform="translate(30.31941,313.225)"
           id="g72"><text
             id="text74"
             style="font-variant:normal;font-weight:normal;font-size:18px;font-family:PTSans;-inkscape-font-specification:PTSans-Regular;writing-mode:lr-tb;fill:#ffffff;fill-opacity:1;fill-rule:nonzero;stroke:none"
             transform="scale(1,-1)"><tspan
               id="tspan76"
               y="0"
               x="0 12.0006 22.003201 30.997801 41.000401 51.002998 59.997601 68.002197 76.006798 80.015404 86.022003 96.024597">Openness to </tspan></text>
</g><g
           transform="translate(27.31941,292.225)"
           id="g78"><text
             id="text80"
             style="font-variant:normal;font-weight:normal;font-size:18px;font-family:PTSans;-inkscape-font-specification:PTSans-Regular;writing-mode:lr-tb;fill:#ffffff;fill-opacity:1;fill-rule:nonzero;stroke:none"
             transform="scale(1,-1)"><tspan
               id="tspan82"
               y="0"
               x="0 10.0008 16.0056 21.002399 27.0072 32.004002 40.006802 45.003601 53.006401 68.0112 72.017998 81.010803 91.011597 101.0124">Criticism and </tspan></text>
</g><g
           transform="translate(39.31941,270.225)"
           id="g84"><text
             id="text86"
             style="font-variant:normal;font-weight:normal;font-size:18px;font-family:PTSans;-inkscape-font-specification:PTSans-Regular;writing-mode:lr-tb;fill:#ffffff;fill-opacity:1;fill-rule:nonzero;stroke:none"
             transform="scale(1,-1)"><tspan
               id="tspan88"
               y="0"
               x="0 10.0008 18.993601 24.9984 33.991199 43.992001 51.994801 56.9916 66.992401">Extension</tspan></text>
</g><path
           id="path90"
           style="fill:#0070c0;fill-opacity:1;fill-rule:nonzero;stroke:none"
           d="m 165.5,328.8331 c 0,8.6526 7.0143,15.6669 15.6669,15.6669 l 120.6662,0 c 8.6526,0 15.6669,-7.0143 15.6669,-15.6669 l 0,-62.6662 c 0,-8.6526 -7.0143,-15.6669 -15.6669,-15.6669 l -120.6662,0 c -8.6526,0 -15.6669,7.0143 -15.6669,15.6669 l 0,62.6662 z" /><g
           transform="matrix(7.874016e-5,0,0,-7.874016e-5,165.5,344.5)"
           id="g92"><path
             id="path94"
             style="fill:none;stroke:#0d0d0d;stroke-width:12700;stroke-linecap:butt;stroke-linejoin:miter;stroke-miterlimit:8;stroke-dasharray:none;stroke-opacity:1"
             d="M 0,198970.2 C 0,89081.99 89081.96,0 198970.1,0 L 1731430,0 c 109888,0 198970,89081.99 198970,198970.2 l 0,795859.6 c 0,109888.2 -89082,198970.2 -198970,198970.2 l -1532459.9,0 C 89081.96,1193800 0,1104718 0,994829.8 L 0,198970.2 Z" /></g><g
           transform="translate(182.0085,324.025)"
           id="g96"><text
             id="text98"
             style="font-variant:normal;font-weight:normal;font-size:18px;font-family:PTSans;-inkscape-font-specification:PTSans-Regular;writing-mode:lr-tb;fill:#ffffff;fill-opacity:1;fill-rule:nonzero;stroke:none"
             transform="scale(1,-1)"><tspan
               id="tspan100"
               y="0"
               x="0 10.0008 20.0016 30.002399 36.007198 42.012001 47.008801 57.009602 67.010399 73.015198 78.012001 88.012802 98.013603 102.0204 108.0252 118.026">Contribution to </tspan></text>
</g><g
           transform="translate(192.0085,303.025)"
           id="g102"><text
             id="text104"
             style="font-variant:normal;font-weight:normal;font-size:18px;font-family:PTSans;-inkscape-font-specification:PTSans-Regular;writing-mode:lr-tb;fill:#ffffff;fill-opacity:1;fill-rule:nonzero;stroke:none"
             transform="scale(1,-1)"><tspan
               id="tspan106"
               y="0"
               x="0 12.0006 22.003201 37.0098 46.004398 56.007 65.001602 70.000198 80.0028 90.005402 98.010002">Humankinds </tspan></text>
</g><g
           transform="translate(197.0085,281.025)"
           id="g108"><text
             id="text110"
             style="font-variant:normal;font-weight:normal;font-size:18px;font-family:PTSans;-inkscape-font-specification:PTSans-Regular;writing-mode:lr-tb;fill:#ffffff;fill-opacity:1;fill-rule:nonzero;stroke:none"
             transform="scale(1,-1)"><tspan
               id="tspan112"
               y="0"
               x="0 7.9991999 17.006399 25.0056 35.0028 45 54.9972 59.990398 69.987602 79.984802 87.984001">Technology </tspan></text>
</g><g
           transform="translate(220.0085,260.025)"
           id="g114"><text
             id="text116"
             style="font-variant:normal;font-weight:normal;font-size:18px;font-family:PTSans;-inkscape-font-specification:PTSans-Regular;writing-mode:lr-tb;fill:#ffffff;fill-opacity:1;fill-rule:nonzero;stroke:none"
             transform="scale(1,-1)"><tspan
               id="tspan118"
               y="0"
               x="0 10.0008 16.0056 24.9984 33.001202">Stack</tspan></text>
</g><path
           id="path120"
           style="fill:#0070c0;fill-opacity:1;fill-rule:nonzero;stroke:none"
           d="m 2.5,181.1665 c 0,4.0502 3.283304,7.3335 7.333465,7.3335 l 300.333035,0 c 4.0502,0 7.3335,-3.2833 7.3335,-7.3335 l 0,-29.333 c 0,-4.0502 -3.2833,-7.3335 -7.3335,-7.3335 l -300.333035,0 C 5.783304,144.5 2.5,147.7833 2.5,151.8335 l 0,29.333 z" /><g
           transform="matrix(7.874016e-5,0,0,-7.874016e-5,2.5,188.5)"
           id="g122"><path
             id="path124"
             style="fill:none;stroke:#0d0d0d;stroke-width:12700;stroke-linecap:butt;stroke-linejoin:miter;stroke-miterlimit:8;stroke-dasharray:none;stroke-opacity:1"
             d="M 0,93135.52 C 0,41698.19 41697.96,0 93135,0 l 3814230,0 c 51437,0 93135,41698.19 93135,93135.52 l 0,372528.98 c 0,51437.3 -41698,93135.5 -93135,93135.5 l -3814230,0 C 41697.96,558800 0,517101.8 0,465664.5 L 0,93135.52 Z" /></g><g
           transform="translate(139.8405,160.6063)"
           id="g126"><text
             id="text128"
             style="font-variant:normal;font-weight:normal;font-size:18px;font-family:PTSans;-inkscape-font-specification:PTSans-Regular;writing-mode:lr-tb;fill:#ffffff;fill-opacity:1;fill-rule:nonzero;stroke:none"
             transform="scale(1,-1)"><tspan
               id="tspan130"
               y="0"
               x="0 10.0008 20.0016 30.002399">Code</tspan></text>
</g></g></g><g
       id="g132"><g
         clip-path="url(#clipPath136)"
         id="g134"><path
           id="path140"
           style="fill:#f68627;fill-opacity:1;fill-rule:nonzero;stroke:none"
           d="m 291.3086,12.80729 -0.01,4.3274 3.7785,2.17252 3.7889,-2.15539 0.01,-4.32766 -3.7787,-2.17226 -3.7887,2.15539 z" /><path
           id="path142"
           style="fill:#565e6c;fill-opacity:1;fill-rule:nonzero;stroke:none"
           d="m 300.1973,12.51894 -0.0117,5.04893 4.4087,2.53475 4.42,-2.51471 0.0114,-5.04893 -4.4082,-2.53449 -4.4202,2.51445 z" /><path
           id="path144"
           style="fill:#757c8b;fill-opacity:1;fill-rule:nonzero;stroke:none"
           d="M 294.603,3.78847 294.5915,8.837665 299,11.37241 303.4202,8.8577 303.4317,3.808769 299.0229,1.274285 294.603,3.78847 Z" /><path
           id="path146"
           style="fill:#9ba1ab;fill-opacity:1;fill-rule:nonzero;stroke:none"
           d="m 295.7554,21.00385 -0.01,4.32818 3.7785,2.17226 3.7889,-2.15565 0.0101,-4.3274 -3.779,-2.17252 -3.7887,2.15513 z" /><path
           id="path148"
           style="fill:#9ba1ab;fill-opacity:1;fill-rule:nonzero;stroke:none"
           d="m 285.8045,5.746064 -0.01,4.327656 3.7788,2.17226 3.7886,-2.15539 0.0102,-4.32739 -3.7788,-2.172528 -3.7889,2.155392 z" /><path
           id="path150"
           style="fill:#b3bbc6;fill-opacity:1;fill-rule:nonzero;stroke:none"
           d="m 305.0582,21.58748 -0.0115,5.04867 4.4085,2.53449 4.4199,-2.51472 0.0117,-5.0484 -4.4085,-2.53448 -4.4201,2.51444 z" /><path
           id="path152"
           style="fill:#565e6c;fill-opacity:1;fill-rule:nonzero;stroke:none"
           d="m 283.5337,13.92511 -0.008,3.60612 3.149,1.81057 3.1571,-1.79634 0.008,-3.60638 -3.149,-1.81004 -3.1573,1.79607 z" /><path
           id="path154"
           style="fill:#757c8b;fill-opacity:1;fill-rule:nonzero;stroke:none"
           d="m 288.0993,20.35354 -0.009,3.60638 3.1491,1.8103 3.1573,-1.79607 0.008,-3.60638 -3.1488,-1.8103 -3.157,1.79607 z" /><path
           id="path156"
           style="fill:#b3bbc6;fill-opacity:1;fill-rule:nonzero;stroke:none"
           d="m 278.2712,8.071072 -0.008,3.606118 3.1488,1.81057 3.1573,-1.79634 0.008,-3.605849 -3.1485,-1.810571 -3.1574,1.796072 z" /><path
           id="path158"
           style="fill:#9ba1ab;fill-opacity:1;fill-rule:nonzero;stroke:none"
           d="m 193.825,12.12095 2.5651,0 c 0.0437,-1.25934 1.0963,-1.88913 2.2359,-1.88913 1.1839,0 2.2362,0.73841 2.2362,1.93263 0,1.28121 -1.2059,2.08447 -2.2362,2.12771 -0.1314,0 -1.1838,0 -2.3016,0.49956 -1.6004,0.73842 -2.4994,2.08475 -2.4994,3.88688 0,2.888 2.324,4.64691 4.801,4.64691 2.6525,0 4.6917,-1.78052 4.7354,-4.36483 l -2.5431,0 c -0.0439,1.2596 -1.0303,1.82401 -2.1923,1.82401 -1.2059,0 -2.2359,-0.69465 -2.2359,-2.10609 0,-1.25933 1.0963,-1.93237 2.2359,-1.93237 0.1097,0 1.1839,0 2.2799,-0.49983 1.6224,-0.73788 2.4994,-2.28008 2.4994,-4.08195 0,-2.90989 -2.3017,-4.473181 -4.7793,-4.473181 -2.6524,0.064851 -4.7568,1.585172 -4.801,4.429681" /><path
           id="path160"
           style="fill:#9ba1ab;fill-opacity:1;fill-rule:nonzero;stroke:none"
           d="m 216.6793,11.70851 1.7976,-1.802666 C 217.0956,8.538425 215.1886,7.6914 213.0624,7.6914 c -4.231,0 -7.6947,3.03985 -7.6947,7.81699 0,4.58179 3.2005,7.81698 7.6947,7.81698 2.1262,0 4.0332,-0.84676 5.4145,-2.23658 l -1.7976,-1.78052 c -0.9206,0.91187 -2.2141,1.47656 -3.6169,1.47656 -3.1571,0 -5.0861,-2.21497 -5.0861,-5.27644 0,-3.25708 2.258,-5.27671 5.0861,-5.27671 1.4028,0 2.6963,0.56495 3.6169,1.47683" /><path
           id="path162"
           style="fill:#9ba1ab;fill-opacity:1;fill-rule:nonzero;stroke:none"
           d="m 223.7654,11.86041 3.7266,0 -1.863,5.2767 -1.8636,-5.2767 z m 4.5596,-2.193093 -5.3924,0 -0.6579,-1.758901 -2.7621,0 6.1164,15.634234 6.1381,-15.634234 -2.762,0 -0.6801,1.758901 z" /><path
           id="path164"
           style="fill:#9ba1ab;fill-opacity:1;fill-rule:nonzero;stroke:none"
           d="m 242.3994,10.44883 0,-2.540546 -8.2431,0 0,15.200046 2.5651,0 0,-12.6595 5.678,0 z" /><path
           id="path166"
           style="fill:#9ba1ab;fill-opacity:1;fill-rule:nonzero;stroke:none"
           d="m 245.3149,10.44878 10.2376,0 0,-2.540549 -10.2376,0 0,2.540549 z m 10.2376,3.80014 -10.2376,0 0,2.51867 10.2376,0 0,-2.51867 z m 0,6.31881 -10.2376,0 0,2.54055 10.2376,0 0,-2.54055 z" /><path
           id="path168"
           style="fill:#f68627;fill-opacity:1;fill-rule:nonzero;stroke:none"
           d="m 259.3012,7.908495 2.56487,0 0,15.19978 -2.56487,0 0,-15.19978 z" /><path
           id="path170"
           style="fill:#f68627;fill-opacity:1;fill-rule:nonzero;stroke:none"
           d="m 273.7259,20.78475 -3.2228,0 0,-12.876466 -2.543,0 0,12.876466 -3.2223,0 0,2.32332 8.9881,0 0,-2.32332 z" /></g></g></g></svg>