<?xml version="1.0" encoding="UTF-8" standalone="no"?>
<!DOCTYPE svg PUBLIC "-//W3C//DTD SVG 1.1//EN"
"http://www.w3.org/Graphics/SVG/1.1/DTD/svg11.dtd">


<!-- Page 1 -->
<svg x="0" y="0" width="1659" height="909" viewBox="0 0 1659 909" version="1.1" xmlns="http://www.w3.org/2000/svg" xmlns:xlink="http://www.w3.org/1999/xlink"
style="display: block;margin-left: auto;margin-right: auto;">
<defs>

<style type="text/css"><![CDATA[

.g1_1{
fill: #F79436;
}
.g2_1{
fill: #5A6573;
}
.g3_1{
fill: #798390;
}
.g4_1{
fill: #9DA5AE;
}
.g5_1{
fill: #B3BBC6;
}


]]></style>

</defs>
<path d="M0,0
L0,909
L1659,909
L1659,0 Z " 
fill="#FFFFFF" stroke="none" />
<path d="M1026.9,468.7l-0.1,-25.1l21.7,-12.5l21.8,12.4l0,25.1l-21.7,12.6Z" class="g1_1" />
<path d="M1077.9,470.4l0,-29.3l25.3,-14.7l25.3,14.6l0.1,29.3L1103.3,485Z" class="g2_1" />
<path d="M1045.8,521l-0.1,-29.3L1071,477l25.4,14.6l0.1,29.3l-25.3,14.7Z" class="g3_1" />
<path d="M1052.4,421.2l0,-25.1l21.7,-12.6l21.7,12.5l0.1,25.1l-21.7,12.6Z" class="g4_1" />
<path d="M995.3,509.6l-0.1,-25L1016.9,472l21.8,12.5l0,25l-21.6,12.6Z" class="g4_1" />
<path d="M1105.8,417.8l0,-29.2l25.3,-14.7l25.3,14.6l0.1,29.2l-25.3,14.7Z" class="g5_1" />
<path d="M982.3,462.2l-0.1,-20.9l18.1,-10.4l18.1,10.4l0.1,20.9l-18.1,10.5Z" class="g2_1" />
<path d="M1008.5,425l-0.1,-20.9l18.1,-10.5l18.1,10.4l0.1,20.9l-18.1,10.5Z" class="g3_1" />
<path d="M952.1,496.2L952,475.3l18.1,-10.5l18.1,10.4l0.1,20.9l-18.1,10.5Z" class="g5_1" />
<path d="M467.3,472.7l14.7,0c0.3,7.3,6.3,10.9,12.9,10.9c6.8,0,12.8,-4.2,12.8,-11.2c0,-7.4,-6.9,-12,-12.8,-12.3c-0.8,0,-6.8,0,-13.2,-2.9c-9.2,-4.3,-14.4,-12.1,-14.4,-22.5c0,-16.7,13.4,-26.9,27.6,-26.9c15.2,0,26.9,10.3,27.2,25.3l-14.6,0c-0.3,-7.3,-6,-10.6,-12.6,-10.6c-7,0,-12.9,4,-12.9,12.2c0,7.3,6.3,11.2,12.9,11.2c0.6,0,6.8,0,13.1,2.9c9.3,4.3,14.3,13.2,14.3,23.6c0,16.9,-13.2,26,-27.4,26C479.6,498,467.6,489.2,467.3,472.7Z" class="g4_1" />
<path d="M598.5,475.1l10.3,10.4c-7.9,8,-18.9,12.9,-31.1,12.9c-24.2,0,-44.1,-17.6,-44.1,-45.3c0,-26.6,18.3,-45.3,44.1,-45.3c12.2,0,23.2,4.9,31.1,12.9L598.5,431c-5.3,-5.2,-12.7,-8.5,-20.8,-8.5c-18.1,0,-29.2,12.8,-29.2,30.6c0,18.8,13,30.5,29.2,30.5c8.1,0,15.5,-3.2,20.8,-8.5Z" class="g4_1" />
<path d="M639.2,474.2l21.4,0L649.9,443.6Zm26.2,12.7l-31,0l-3.8,10.2l-15.8,0l35.1,-90.6l35.2,90.6l-15.8,0Z" class="g4_1" />
<path d="M746.1,482.4l0,14.7l-47.3,0l0,-88.1l14.7,0l0,73.4Z" class="g4_1" />
<path d="M762.9,482.4l58.7,0l0,14.7l-58.7,0l0,-14.7Zm58.7,-22l-58.7,0l0,-14.6l58.7,0l0,14.6Zm0,-36.7l-58.7,0l0,-14.7l58.7,0l0,14.7Z" class="g4_1" />
<path d="M843.2,409l14.7,0l0,88.1l-14.7,0l0,-88.1Z" class="g1_1" />
<path d="M926,422.5l-18.5,0l0,74.6l-14.6,0l0,-74.6l-18.5,0l0,-13.5l51.6,0Z" class="g1_1" />

</svg>
