<?xml version="1.0" encoding="UTF-8" standalone="no"?>
<!DOCTYPE svg PUBLIC "-//W3C//DTD SVG 1.1//EN"
"http://www.w3.org/Graphics/SVG/1.1/DTD/svg11.dtd">


<!-- Page 1 -->
<svg x="0" y="0" width="1376" height="239" viewBox="0 0 1376 239" version="1.1" xmlns="http://www.w3.org/2000/svg" xmlns:xlink="http://www.w3.org/1999/xlink"
style="display: block;margin-left: auto;margin-right: auto;">
<defs>

<style type="text/css"><![CDATA[

.g1_1{
fill: #FFFFFF;
fill-opacity: 0;
}
.g2_1{
fill: #0070C0;
}
.g3_1{
fill: none;
stroke: #0070C0;
stroke-width: 1.5277778;
stroke-linecap: butt;
stroke-linejoin: miter;
stroke-miterlimit: 8;
}
.g4_1{
fill: #F79436;
}
.g5_1{
fill: #5A6573;
}
.g6_1{
fill: #798390;
}
.g7_1{
fill: #9DA5AE;
}
.g8_1{
fill: #B3BBC6;
}

.s1_1{
font-size: 27.50px;
font-family: ArialMT_9;
fill: #000000;
}

]]></style>

</defs>
<path d="M0,0
L0,239
L1376,239
L1376,0 Z " 
fill="none" stroke="none" />
<path d="M0,239.9l1376.5,0L1376.5,0L0,0L0,239.9Z" class="g1_1" />
<text 
x="739" 
y="36" 
dx="0,0,0,0,0,0,0,0,0,0,0,0,0,0,0,0,0,0,0,0" 
class="s1_1"
>Open Source Platform</text>

<text 
x="737" 
y="125" 
dx="0,0,-3.1,0,0,0,0,0,0,0,0,0,0,0,0,0,0,0,0,0,0,0,0,0,0,0,0,0,0,0,0,0,0,0,0,0,0" 
class="s1_1"
>“Technological Openness First”-Design</text>

<text 
x="737" 
y="80" 
dx="0,0,0,0,0,0,0,0,0,0,0,0,0,0,0,0,0,0" 
class="s1_1"
>Open Documentation</text>

<path d="M642.4,20.6l69.5,0l6.9,6.9l-6.9,6.9l-69.5,0l6.9,-6.9Z" class="g2_1" />
<path d="M642.4,20.6l69.5,0l6.9,6.9l-6.9,6.9l-69.5,0l6.9,-6.9Z" class="g3_1" />
<text 
x="739" 
y="171" 
dx="0,0,0,0,0,0,0,0,0,0,-3.1,0,0,0,0,0,0,0,0,0,0,0,0,0,-1.5,0,0,0,0,0,0,0,0,0,0,0,0,0,0,0,0,0,0,0,0,0" 
class="s1_1"
>Advanced Technology for Advanced Manufacturing</text>

<path d="M640.9,64.9l70.3,0l6.1,6.1l-6.1,6.2l-70.3,0L647,71Z" class="g2_1" />
<path d="M640.9,64.9l70.3,0l6.1,6.1l-6.1,6.2l-70.3,0L647,71Z" class="g3_1" />
<path d="M642.4,109.2l69.5,0l6.9,6.9l-6.9,6.9l-69.5,0l6.9,-6.9Z" class="g2_1" />
<path d="M642.4,109.2l69.5,0l6.9,6.9l-6.9,6.9l-69.5,0l6.9,-6.9Z" class="g3_1" />
<path d="M642.4,155.1l70.3,0l6.1,6.1l-6.1,6.1l-70.3,0l6.1,-6.1Z" class="g2_1" />
<path d="M642.4,155.1l70.3,0l6.1,6.1l-6.1,6.1l-70.3,0l6.1,-6.1Z" class="g3_1" />
<text 
x="739" 
y="215" 
dx="0,0,0,0,0,0,0,0,0,0,0,0,-1.5,0,0,0,0,0,0,0,0,0,0,0,0,0,0,0,0,0,0,0,0,0,0,0,0,0,0,0,0,0" 
class="s1_1"
>Network of Trusted and Proficient Partners</text>

<path d="M642.4,199.4l70.3,0l6.1,6.1l-6.1,6.1l-70.3,0l6.1,-6.1Z" class="g2_1" />
<path d="M642.4,199.4l70.3,0l6.1,6.1l-6.1,6.1l-70.3,0l6.1,-6.1Z" class="g3_1" />
<path d="M509.6,131.4l0,-22.1L528.8,98.1L548,109.2l0.1,22.2l-19.2,11.1Z" class="g4_1" />
<path d="M554.8,132.9L554.7,107L577.1,94l22.5,12.9l0,25.9l-22.4,13Z" class="g5_1" />
<path d="M526.4,177.7l-0.1,-25.9l22.4,-13l22.4,12.9l0.1,25.9l-22.4,13Z" class="g6_1" />
<path d="M532.2,89.4l0,-22.2L551.4,56.1l19.2,11.1l0.1,22.1l-19.2,11.2Z" class="g7_1" />
<path d="M481.7,167.6l-0.1,-22.1l19.2,-11.2L520,145.4l0.1,22.1l-19.2,11.2Z" class="g7_1" />
<path d="M579.5,86.4L579.4,60.6l22.4,-13l22.5,12.9l0,25.8l-22.4,13Z" class="g8_1" />
<path d="M470.1,125.7l0,-18.5l16,-9.3l16,9.3l0.1,18.4l-16,9.3Z" class="g5_1" />
<path d="M493.3,92.8l0,-18.5l16,-9.3l16,9.2l0,18.5l-16,9.3Z" class="g6_1" />
<path d="M443.4,155.7l-0.1,-18.5l16,-9.2l16.1,9.2l0,18.4l-16,9.3Z" class="g8_1" />
<path d="M14.4,135l13,0c0.2,6.4,5.6,9.6,11.3,9.6c6.1,0,11.4,-3.7,11.4,-9.9c0,-6.5,-6.1,-10.6,-11.4,-10.9c-0.6,0,-6,0,-11.6,-2.5c-8.2,-3.8,-12.7,-10.7,-12.7,-20C14.4,86.5,26.2,77.5,38.7,77.5c13.5,0,23.9,9.2,24.1,22.4l-12.9,0C49.7,93.4,44.6,90.6,38.7,90.6c-6.1,0,-11.3,3.5,-11.3,10.7c0,6.5,5.6,10,11.3,10c0.6,0,6.1,0,11.6,2.5c8.3,3.8,12.7,11.7,12.7,20.9c0,14.9,-11.7,23,-24.3,23C25.3,157.3,14.6,149.5,14.4,135Z" class="g7_1" />
<path d="M130.5,137.1l9.1,9.2c-7,7,-16.7,11.4,-27.5,11.4C90.6,157.7,73,142.1,73,117.6C73,94.1,89.3,77.5,112.1,77.5c10.8,0,20.5,4.4,27.5,11.5l-9.1,9.1c-4.7,-4.7,-11.3,-7.5,-18.4,-7.5c-16.1,0,-25.9,11.3,-25.9,27c0,16.7,11.5,27,25.9,27c7.1,0,13.7,-2.9,18.4,-7.5Z" class="g7_1" />
<path d="M166.5,136.3l18.9,0l-9.5,-27.1Zm23.1,11.2l-27.4,0l-3.3,9l-14,0l31,-80.1l31.2,80.1l-14,0Z" class="g7_1" />
<path d="M261.1,143.5l0,13l-41.8,0l0,-77.9l13,0l0,64.9Z" class="g7_1" />
<path d="M275.9,143.5l52.1,0l0,13.1l-52.1,0ZM328,124.1l-52.1,0l0,-13l52.1,0Zm0,-32.4l-52.1,0l0,-13.1l52.1,0Z" class="g7_1" />
<path d="M347,156.5l13,0l0,-77.9l-13,0l0,77.9Z" class="g4_1" />
<path d="M420.3,90.6l-16.4,0l0,65.9l-12.9,0l0,-65.9l-16.4,0l0,-12l45.7,0Z" class="g4_1" />


<!-- Any embedded fonts defined here -->
<style type="text/css" ><![CDATA[

@font-face {
	font-family: ArialMT_9;
	src: url("fonts/ArialMT_9.woff") format("woff");
}

]]></style>

</svg>
