<?xml version="1.0" encoding="UTF-8" standalone="no"?>
<!DOCTYPE svg PUBLIC "-//W3C//DTD SVG 1.1//EN"
"http://www.w3.org/Graphics/SVG/1.1/DTD/svg11.dtd">


<!-- Page 1 -->
<svg x="0" y="0" width="1294" height="612" viewBox="0 0 1294 612" version="1.1" xmlns="http://www.w3.org/2000/svg" xmlns:xlink="http://www.w3.org/1999/xlink"
style="display: block;margin-left: auto;margin-right: auto;">
<defs>

<style type="text/css"><![CDATA[

.g1_1{
fill: #FFFFFF;
fill-opacity: 0;
}
.g2_1{
fill: #0070C0;
}
.g3_1{
fill: none;
stroke: #2F528F;
stroke-width: 1.5277778;
stroke-linecap: butt;
stroke-linejoin: miter;
stroke-miterlimit: 8;
}
.g4_1{
fill: none;
stroke: #000000;
stroke-width: 1.5277778;
stroke-linecap: butt;
stroke-linejoin: miter;
stroke-miterlimit: 8;
}

.s1_1{
font-size: 27.50px;
font-family: ArialMT_9;
fill: #000000;
}
.s2_1{
font-size: 25.97px;
font-family: ArialMT_9;
fill: #FFFFFF;
}
.s3_1{
font-size: 25.97px;
font-family: Calibri_b;
fill: #FFFFFF;
}

]]></style>

</defs>
<path d="M0,0
L0,612
L1294,612
L1294,0 Z " 
fill="#FFFFFF" stroke="none" />
<path d="M0,612.6l1294,0L1294,0L0,0L0,612.6Z" class="g1_1" />
<text 
x="82" 
y="39" 
dx="0,0,0,0,0,0,0,0,0,0,0,0,0,0.7,0,0,0,0" 
class="s1_1"
>Strategische Ziele</text>

<text 
x="498" 
y="35" 
dx="0,0,0,0,0,0,0,0,0,0,0,0,0,0,0,0,0,0,0,0,0" 
class="s1_1"
>Architekturprinzipien</text>

<path d="M5.3,604.2l371.3,0l0,-560.7L5.3,43.5l0,560.7Z" class="g2_1" />
<path d="M5.3,43.5l371.3,0l0,560.7l-371.3,0L5.3,43.5Z" class="g3_1" />
<text 
x="15" 
y="72" 
dx="0" 
class="s2_1"
>•</text>

<text 
x="50" 
y="72" 
dx="0,-0.7,0.2,0,0.2,0.5,-0.2,0.2,0.2,0.6,0.2,-0.7,0.1,0.1,0.1,0,1.2,0.6,0.2,0,-1.4,0,-0.7,0.1,0.2,0.1,0,-0.7" 
class="s3_1"
>Digitalisierung mit geringen</text>

<text 
x="50" 
y="104" 
dx="0,0.2,0.1,0.5,0.5,-0.7,0,-1.8,-0.3,0.1,0,1.3,0.2,0.7,0.1" 
class="s3_1"
>Kosten für KMUs</text>

<text 
x="50" 
y="135" 
dx="0,-0.7,0.1,0.6,0.1,0,0.2,0.2,-0.3,0.1,-0.7" 
class="s3_1"
>ermöglichen</text>

<text 
x="15" 
y="199" 
dx="0" 
class="s2_1"
>•</text>

<text 
x="50" 
y="199" 
dx="0,-0.4,-0.7,-0.3,-0.2,0.1,0.2,0,0.1,0.1,0,1.1,0.1,-0.7,0,1.3,0.7,0.2,0.5,-0.2,0.1,0.1,-0.7,0.2,0.5,-0.7" 
class="s3_1"
>Befähigung der Mitarbeiter</text>

<text 
x="50" 
y="231" 
dx="0,-0.7,0.2,0,-0.7,0.1,0,1.9,0.3,0.1,-0.3,0.5,-0.2,-0.2,0.1,0,-1.1,0.1,0.1,0.1,0.1,0.1,0.4,0.5,0.2,0,-1.4,0.2" 
class="s3_1"
>eigene Software produktiv in</text>

<text 
x="50" 
y="262" 
dx="0,-0.4,-0.7,0.5,0.1,0.2,-0.7,0,1.2,0.4,0,-0.3,0.1,-0.7,0.1,0.6,-0.7" 
class="s3_1"
>Betrieb zu nehmen</text>

<text 
x="15" 
y="326" 
dx="0" 
class="s2_1"
>•</text>

<text 
x="50" 
y="326" 
dx="0,0.3,0.1,-0.3,0.5,-0.2,-0.2,0.1,-0.7,-0.2,0,0.2,0.2,0.2,0.5,-0.2,0,0.1,0.1,-0.7" 
class="s3_1"
>Softwareagilität der</text>

<text 
x="50" 
y="356" 
dx="0,0.1,0.1,0.5,-0.7,0.1,0.1,-0.7,0.1,0.6,-0.7,0,1.3,0.5,0.5,-0.7,0.2,0,-0.7,0.1" 
class="s3_1"
>Unternehmen steigern</text>

<text 
x="15" 
y="421" 
dx="0" 
class="s2_1"
>•</text>

<text 
x="50" 
y="421" 
dx="0,-0.7,0.2,0,0.2,0.5,-0.2,0.2,0,0.5,0.3,0.4,-0.2,0.2,0.2,-0.7,0.1,0.1,0.1" 
class="s3_1"
>Digitale Skalierung</text>

<text 
x="50" 
y="451" 
dx="0,-0.7,0.1,0.6,0.1,0,0.2,0.2,-0.3,0.1,-0.7" 
class="s3_1"
>ermöglichen</text>

<path d="M440.8,604.2l371.2,0L812,43.5l-371.2,0l0,560.7Z" class="g2_1" />
<path d="M440.8,43.5l371.2,0l0,560.7l-371.2,0l0,-560.7Z" class="g3_1" />
<text 
x="450" 
y="72" 
dx="0" 
class="s2_1"
>•</text>

<text 
x="485" 
y="72" 
dx="0,0.2,0.1,0.1,0,0.2,-0.2,0,-0.2,0.1,0,-0.1,0.2,0.1,0.1,0.4,-0.7,0.1" 
class="s3_1"
>Apps al UX Konzept</text>

<text 
x="450" 
y="113" 
dx="0" 
class="s2_1"
>•</text>

<text 
x="485" 
y="113" 
dx="0,0.2,0.1,0.1,0,0.2,-0.2,0.2,0,-1.4,0.7,0.2,-0.3,0.1,0.1,0.5,-0.7,0.1,0.5,0.2,-0.3,-0.7,0,1.7,-0.3,0.1" 
class="s3_1"
>Apps als Microservices für</text>

<text 
x="485" 
y="144" 
dx="0,0.5,-0.7,-0.3,0.1,0.1,0.2,0.5,-0.3,0.1,0,0.4,-0.7,-0.7,0.1,0.2,0.1,0.4,0.6,-0.7,0.1,0.5" 
class="s3_1"
>technische Deployments</text>

<text 
x="450" 
y="185" 
dx="0" 
class="s2_1"
>•</text>

<text 
x="485" 
y="185" 
dx="0,0.3,0.2,-0.2,0.5,-0.3,0.1,0.1,0,-1.3,-0.2,0,0.2,0,-0.6,0.3,0.2,0.1,-0.7,-0.3,-0.2" 
class="s3_1"
>Platform as a Sidecar</text>

<text 
x="450" 
y="227" 
dx="0" 
class="s2_1"
>•</text>

<text 
x="485" 
y="227" 
dx="0,-0.4,0.1,-0.7,0.1,-0.3,0.3,0.1,0.1,0.1,-0.3,0,2,0.3,0.1,-0.3,0.5,-0.2,-0.2,0.1" 
class="s3_1"
>Open-Source Software</text>

<text 
x="485" 
y="259" 
dx="0,-0.7,0.2,0.1,0.1,0.2,0.1,0.1,-0.7,0,1.2,-0.2,-0.1,-0.4,-0.4,0.3" 
class="s3_1"
>einbinden (COTS)</text>

<text 
x="450" 
y="298" 
dx="0" 
class="s2_1"
>•</text>

<text 
x="485" 
y="298" 
dx="0,0.3,-0.7,0.6,-0.2,0.1,0.5,0.2,0.5,-0.3,0.1,-0.7" 
class="s3_1"
>Semantisches</text>

<text 
x="485" 
y="330" 
dx="0,-0.7,0.1,0.6,-0.2,0.1,-0.7,0.1,0.1,-0.7,0.6,0.2,0" 
class="s3_1"
>Domänendesign</text>

<text 
x="450" 
y="372" 
dx="0" 
class="s2_1"
>•</text>

<text 
x="485" 
y="372" 
dx="0,0,-0.2,-0.3,0.1,0.1,0.2,-0.3,0.1,0.5,-0.7,0.1,0.1,0.1,0.2,-0.7,0.1,0.5,0.2,-0.7,0.1,0.5" 
class="s3_1"
>Nachrichtenorientierte</text>

<text 
x="485" 
y="402" 
dx="0,0.2,0.1,0.6,0.6,0.1,0.1,0.2,0.4,-0.2,0.5,0.2,0.1" 
class="s3_1"
>Kommunikation</text>

<text 
x="450" 
y="443" 
dx="0" 
class="s2_1"
>•</text>

<text 
x="485" 
y="443" 
dx="0,-0.4,0.1,0.2,0.2,-0.7,0.1,0.1,0.1,0.2,-0.7,0.1,0.5,0.2,-0.7,0.1,0.1,0.1" 
class="s3_1"
>Rollenorientierung</text>

<text 
x="450" 
y="485" 
dx="0" 
class="s2_1"
>•</text>

<text 
x="485" 
y="485" 
dx="0,-0.5,0.2,0.1,-0.3,-0.2,-0.3,0.1,0,0.4,-0.4,0.1,0.6,0.5,-0.2,0.2,0.2,-0.2,0.5,0.2,0.1,0,-0.3,0.1,0.1" 
class="s3_1"
>Einfache Installation und</text>

<text 
x="485" 
y="515" 
dx="0,-1.7,-0.2,0.1,0.5,0.1,0.1" 
class="s3_1"
>Wartung</text>

<text 
x="450" 
y="557" 
dx="0" 
class="s2_1"
>•</text>

<text 
x="485" 
y="557" 
dx="0,-0.5,0.2,0.1,0.1,-0.7,0.5,0.5,0.1,0.1,0,-0.4,0.5,0.1,0,-0.3,0.3,0.1,-0.3,0.5,-0.2,-0.2,0.1" 
class="s3_1"
>Einbettung von Software</text>

<text 
x="485" 
y="589" 
dx="0,-0.5,0.1,0,0.2,0.1,-0.7,-0.7,0.1,0.2,0.1,0,2.7,-0.4,-0.7,0.5,0,0.1,0.3,0.1,-0.2,-0.3,0.5,0.2,-0.3,-0.7" 
class="s3_1"
>Engineering Best Practices</text>

<path d="M876.2,604.2l371.2,0l0,-560.7l-371.2,0l0,560.7Z" class="g2_1" />
<path d="M876.2,43.5l371.2,0l0,560.7l-371.2,0l0,-560.7Z" class="g3_1" />
<text 
x="885" 
y="71" 
dx="0" 
class="s2_1"
>•</text>

<text 
x="921" 
y="71" 
dx="0,-1.7,-0.7,0.1,-0.3,0.1,0.2,0,-1.4,-0.2,0.6,-0.4,0.7,-0.2" 
class="s3_1"
>Web-Uis (HTML)</text>

<text 
x="885" 
y="110" 
dx="0" 
class="s2_1"
>•</text>

<text 
x="921" 
y="110" 
dx="0,-0.1,0.1,0.1,0.5,-0.2,0.2,0.1,-0.7,0,-1.8,-0.2,-0.7,0.1,-0.3,-1.1,-0.7,0.1" 
class="s3_1"
>Container (Docker)</text>

<text 
x="885" 
y="150" 
dx="0" 
class="s2_1"
>•</text>

<text 
x="921" 
y="150" 
dx="0,0.6,-0.4,-0.4,-1.2,0.7,-0.4,-0.5,0.3,0,-2.3,0.2,0.1,0.6,-0.9,0.1,-1.4,0.2,-1.1,-0.2,-1.1,0.2,0.1" 
class="s3_1"
>HTTP/REST Kommunikation</text>

<text 
x="885" 
y="190" 
dx="0" 
class="s2_1"
>•</text>

<text 
x="921" 
y="190" 
dx="0,-0.2,0.1,-0.2,0.1,0.1,-0.7,0,-1.8,-0.2,0.3,0.1,0.1,-0.6,-1.1,-0.3,0.2,-1.4,0.1,-1" 
class="s3_1"
>Wrapper (Proxy-Apps/</text>

<text 
x="921" 
y="220" 
dx="0,0.3,0.2,0.1,-0.7,-0.3,-0.2,0.1,0.5,0,-2.1,-0.3,0.1,0,-1.8,-0.2,-0.7,0,-0.2,-0.3,0,-1.5,0.3,0.5,0.5,-1.1,-0.7,-0.9" 
class="s3_1"
>Sidecars) für Legacy Systeme</text>

<text 
x="885" 
y="259" 
dx="0" 
class="s2_1"
>•</text>

<text 
x="921" 
y="259" 
dx="0,-0.4,0.1,0.1,0.1,0.1,-0.7,0,-1.8,-0.1,0.1,0.1,0.5,-0.7,-0.6,0.5" 
class="s3_1"
>Bounded Contexts</text>

<text 
x="885" 
y="298" 
dx="0" 
class="s2_1"
>•</text>

<text 
x="921" 
y="298" 
dx="0,-0.2,0.2,0.1,-1.1,-0.7,0.1,-0.3,-0.7,-0.2,0.5,0,-2.1,0,0.1,0.5,0.4,0.1,-1.4" 
class="s3_1"
>Linked-Data Nutzung</text>

<text 
x="885" 
y="338" 
dx="0" 
class="s2_1"
>•</text>

<text 
x="921" 
y="338" 
dx="0,0.2,0.1,0.1,0.5,-0.7,0.1,0.5,0.2,0.1,3.2,0.1,0.1,-0.7,0,-1.8,0.2,0.1,0.1,-0.3,-1.4,0,0.1,-1.4,-0.2,-1.1,-1.4,-1.5" 
class="s3_1"
>Konventionüber Konfiguration</text>

<text 
x="885" 
y="378" 
dx="0" 
class="s2_1"
>•</text>

<text 
x="921" 
y="378" 
dx="0,0.2,0.1,0,-0.7,0.1,-0.2,0.6,0.6,0.5,0,-2.6,-0.2,-0.7,0.1,0.1,-0.9,-0.2,-1.1,-0.7,0.1,0.2,-0.2,0.2,-1.4,-0.7" 
class="s3_1"
>Angepasste Lernmaterialien</text>

<text 
x="885" 
y="418" 
dx="0" 
class="s2_1"
>•</text>

<text 
x="921" 
y="418" 
dx="0,-0.5,0.1,0,0.2,0.1,-0.7,-0.7,0.1,0.2,0.1,0,-1.9,-2,0.1,0.1,0.2,0,-1.4,0.1,0.1" 
class="s3_1"
>Engineering Tools und</text>

<text 
x="921" 
y="447" 
dx="0,0.3,0.1,-0.2,0.6,-0.7,-0.2,0.1,0.1,0.4,3.6,-0.3,0.1,0,-1.8,-0.5,0.1,0.5,-0.2,0.2,-0.3,-1.1,0.2,-0.7" 
class="s3_1"
>Frameworksfür Entwickler</text>

<text 
x="885" 
y="486" 
dx="0" 
class="s2_1"
>•</text>

<text 
x="921" 
y="486" 
dx="0,-0.4,0.1,-0.7,0,-1.8,0.3,0.1,0.1,0.1,-0.3" 
class="s3_1"
>Open Source</text>

<text 
x="921" 
y="517" 
dx="0,-0.4,-0.7,-0.3,-0.7,0.1,-0.7,0.1,0.4,0.2,0.6,0.1,0.2,-0.7,-0.9,-0.7,0.1,-1.1,0.2,-0.7,0.1,0.1,-1.4" 
class="s3_1"
>Referenzimplementierung</text>

<text 
x="885" 
y="557" 
dx="0" 
class="s2_1"
>•</text>

<text 
x="921" 
y="557" 
dx="0,-0.4,-0.7,0.5,0.1,0.1,0.1,0.5,0.2,0.5,0,-2.6,0,-1.3,-0.4,-0.7,-0.2,-0.3,0.5,0.2,0.5,0,-2.6,-0.7,-0.7,0.5,0.2,0" 
class="s3_1"
>Responsive &amp; Reactive Design</text>

<path d="M822.7,138.6l28.3,0l0,-8l16,16.1l-16,16l0,-8l-28.3,0Z" class="g2_1" />
<path d="M822.7,138.6l28.3,0l0,-8l16,16.1l-16,16l0,-8l-28.3,0Z" class="g4_1" />
<path d="M822.7,252.1l27.5,0l0,-8.4L867,260.5l-16.8,16.8l0,-8.4l-27.5,0Z" class="g2_1" />
<path d="M822.7,252.1l27.5,0l0,-8.4L867,260.5l-16.8,16.8l0,-8.4l-27.5,0Z" class="g4_1" />
<path d="M822.7,366.3l28.3,0l0,-8l16,16l-16,16l0,-8l-28.3,0Z" class="g2_1" />
<path d="M822.7,366.3l28.3,0l0,-8l16,16l-16,16l0,-8l-28.3,0Z" class="g4_1" />
<path d="M387.3,138.6l28.3,0l0,-8l16,16.1l-16,16l0,-8l-28.3,0Z" class="g2_1" />
<path d="M387.3,138.6l28.3,0l0,-8l16,16.1l-16,16l0,-8l-28.3,0Z" class="g4_1" />
<path d="M387.3,252.1l27.5,0l0,-8.4l16.8,16.8l-16.8,16.8l0,-8.4l-27.5,0Z" class="g2_1" />
<path d="M387.3,252.1l27.5,0l0,-8.4l16.8,16.8l-16.8,16.8l0,-8.4l-27.5,0Z" class="g4_1" />
<path d="M387.3,366.3l28.3,0l0,-8l16,16l-16,16l0,-8l-28.3,0Z" class="g2_1" />
<path d="M387.3,366.3l28.3,0l0,-8l16,16l-16,16l0,-8l-28.3,0Z" class="g4_1" />
<text 
x="861" 
y="35" 
dx="0,0,0,0,0,0,0,0,0,0,0,0,0,0,0,0,0,0,0,0,0,0,0,0,0,0,0,0,0,0,0" 
class="s1_1"
>Design und Deployment Praktiken</text>



<!-- Any embedded fonts defined here -->
<style type="text/css" ><![CDATA[

@font-face {
	font-family: Calibri_b;
	src: url("fonts/Calibri_b.woff") format("woff");
}

@font-face {
	font-family: ArialMT_9;
	src: url("fonts/ArialMT_9.woff") format("woff");
}

]]></style>

</svg>
