<?xml version="1.0" encoding="UTF-8" standalone="no"?>
<!DOCTYPE svg PUBLIC "-//W3C//DTD SVG 1.1//EN"
"http://www.w3.org/Graphics/SVG/1.1/DTD/svg11.dtd">


<!-- Page 1 -->
<svg x="0" y="0" width="1295" height="421" viewBox="0 0 1295 421" version="1.1" xmlns="http://www.w3.org/2000/svg" xmlns:xlink="http://www.w3.org/1999/xlink"
style="display: block;margin-left: auto;margin-right: auto;">
<defs>

<style type="text/css"><![CDATA[

.g1_1{
fill: #FFFFFF;
fill-opacity: 0;
}
.g2_1{
fill: #0070C0;
fill-opacity: 0.78819996;
}
.g3_1{
fill: #005A9A;
fill-opacity: 0.78819996;
}
.g4_1{
fill: #328CCC;
fill-opacity: 0.78819996;
}
.g5_1{
fill: none;
stroke: #E7E7EB;
stroke-width: 1.5277778;
stroke-linecap: butt;
stroke-linejoin: miter;
stroke-miterlimit: 8;
}
.g6_1{
fill: #FFFFFF;
}
.g7_1{
fill: #CDCDCD;
}
.g8_1{
fill: none;
stroke: #000000;
stroke-width: 3.0555556;
stroke-linecap: butt;
stroke-linejoin: miter;
stroke-miterlimit: 8;
}
.g9_1{
fill: none;
stroke: #000000;
stroke-width: 1.5277778;
stroke-linecap: butt;
stroke-linejoin: miter;
stroke-miterlimit: 8;
}
.g10_1{
fill: #0070C0;
}
.g11_1{
fill: none;
stroke: #FFFFFF;
stroke-width: 1.4409394;
stroke-linecap: butt;
stroke-linejoin: miter;
stroke-miterlimit: 8;
}
.g12_1{
fill: none;
stroke: #FFFFFF;
stroke-width: 1.5277778;
stroke-linecap: butt;
stroke-linejoin: miter;
stroke-miterlimit: 8;
}
.g13_1{
fill: none;
stroke: #FFFFFF;
stroke-width: 1.47572;
stroke-linecap: butt;
stroke-linejoin: miter;
stroke-miterlimit: 8;
}

.s1_1{
font-size: 27.50px;
font-family: PTSans-Regular_8;
fill: #FFFFFF;
}
.s2_1{
font-size: 16.81px;
font-family: ArialMT_c;
fill: #000000;
}
.s3_1{
font-size: 21.39px;
font-family: Arial-BoldMT_e;
fill: #000000;
}
.s4_1{
font-size: 13.75px;
font-family: ArialMT_c;
fill: #000000;
}
.s5_1{
font-size: 30.56px;
font-family: ArialMT_c;
fill: #000000;
}

]]></style>

</defs>
<path d="M0,0
L0,421
L1295,421
L1295,0 Z " 
fill="#FFFFFF" stroke="none" />
<path d="M0,421.7l1295.6,0L1295.6,0L0,0L0,421.7Z" class="g1_1" />
<path d="M0.8,411.7l980.1,0l0,-49.7L0.8,362l0,49.7Z" class="g2_1" />
<path d="M980.9,362L1294.8,48.1l0,49.8L980.9,411.7Z" class="g3_1" />
<path d="M0.8,362L314.6,48.1l980.2,0L980.9,362Z" class="g4_1" />
<path d="M0.8,362L314.6,48.1l980.2,0l0,49.8L980.9,411.7l-980.1,0Zm0,0l980.1,0L1294.8,48.1M980.9,362l0,49.7" class="g5_1" />
<text 
x="391" 
y="395" 
dx="0,0.7,-0.2,0.1,-0.4,-0.2,-0.4,-3,-0.7,-0.1,-0.4,0.1,-0.1,0.4,0.5,-0.2" 
class="s1_1"
>ScaleIT-Platform</text>

<image preserveAspectRatio="none" x="417" y="215" width="57" height="112" xlink:href="1/img/1.png" />
<text 
x="431" 
y="345" 
dx="0,0.5,0.1,0.8,-0.2,0.5" 
class="s2_1"
>(User)</text>

<text 
x="324" 
y="346" 
dx="0,0.5,-0.2,-0.2,0.8,-0.2,-0.7,-0.2,-0.2" 
class="s2_1"
>(Machine)</text>

<path d="M317.8,325.4l57.7,0l0,-56.1l-57.7,0l0,56.1Z" class="g6_1" />
<path d="M375.5,269.3l18.7,-18.7l0,56.1l-18.7,18.7Z" class="g7_1" />
<path d="M317.8,269.3l18.7,-18.7l57.7,0l-18.7,18.7Z" class="g6_1" />
<path d="M317.8,269.3l18.7,-18.7l57.7,0l0,56.1l-18.7,18.7l-57.7,0Zm0,0l57.7,0l18.7,-18.7m-18.7,18.7l0,56.1" class="g8_1" />
<text 
x="337" 
y="305" 
dx="0" 
class="s3_1"
>M</text>

<text 
x="924" 
y="184" 
dx="0,0.5,-0.2,-0.2,0.8,-0.2,-0.7,-0.2,-0.2" 
class="s2_1"
>(Machine)</text>

<path d="M918.2,163.5l57.7,0l0,-56.2l-57.7,0l0,56.2Z" class="g6_1" />
<path d="M975.9,107.3L994.6,88.6l0,56.2l-18.7,18.7Z" class="g7_1" />
<path d="M918.2,107.3L936.9,88.6l57.7,0l-18.7,18.7Z" class="g6_1" />
<path d="M918.2,107.3L936.9,88.6l57.7,0l0,56.2l-18.7,18.7l-57.7,0Zm0,0l57.7,0L994.6,88.6m-18.7,18.7l0,56.2" class="g8_1" />
<text 
x="937" 
y="144" 
dx="0" 
class="s3_1"
>M</text>

<text 
x="1014" 
y="265" 
dx="0,0.5,-0.2,-0.2,0.8,-0.2,-0.7,-0.2,-0.2" 
class="s2_1"
>(Machine)</text>

<path d="M1008.3,244.4l57.7,0l0,-56.1l-57.7,0l0,56.1Z" class="g6_1" />
<path d="M1066,188.3l18.7,-18.7l0,56.1L1066,244.4Z" class="g7_1" />
<path d="M1008.3,188.3L1027,169.6l57.7,0L1066,188.3Z" class="g6_1" />
<path d="M1008.3,188.3L1027,169.6l57.7,0l0,56.1L1066,244.4l-57.7,0Zm0,0l57.7,0l18.7,-18.7M1066,188.3l0,56.1" class="g8_1" />
<text 
x="1027" 
y="224" 
dx="0" 
class="s3_1"
>M</text>

<text 
x="643" 
y="330" 
dx="0,0.5,-0.2,-0.2,0.8,-0.2,-0.7,-0.2,-0.2" 
class="s2_1"
>(Machine)</text>

<path d="M638.6,308.6l56.2,0l0,-56.1l-56.2,0l0,56.1Z" class="g6_1" />
<path d="M694.8,252.5l18.7,-18.7l0,56.1l-18.7,18.7Z" class="g7_1" />
<path d="M638.6,252.5l18.7,-18.7l56.2,0l-18.7,18.7Z" class="g6_1" />
<path d="M638.6,252.5l18.7,-18.7l56.2,0l0,56.1l-18.7,18.7l-56.2,0Zm0,0l56.2,0l18.7,-18.7m-18.7,18.7l0,56.1" class="g8_1" />
<text 
x="656" 
y="289" 
dx="0" 
class="s3_1"
>M</text>

<text 
x="1055" 
y="145" 
dx="0,0,0,0,0,0.8,0,0" 
class="s4_1"
>(Sensor)</text>

<path d="M1053.4,98.5c0,-13.5,10.9,-24.4,24.4,-24.4c13.5,0,24.5,10.9,24.5,24.4c0,13.5,-11,24.5,-24.5,24.5c-13.5,0,-24.4,-11,-24.4,-24.5Z" class="g6_1" />
<path d="M1053.4,98.5c0,-13.5,10.9,-24.4,24.4,-24.4c13.5,0,24.5,10.9,24.5,24.4c0,13.5,-11,24.5,-24.5,24.5c-13.5,0,-24.4,-11,-24.4,-24.5Z" class="g9_1" />
<text 
x="1066" 
y="108" 
dx="0" 
class="s5_1"
>S</text>

<text 
x="259" 
y="334" 
dx="0,0,0,0,0,0.8,0,0" 
class="s4_1"
>(Sensor)</text>

<path d="M255.9,288c0,-13.5,10.9,-24.5,24.4,-24.5c13.5,0,24.5,11,24.5,24.5c0,13.5,-11,24.4,-24.5,24.4c-13.5,0,-24.4,-10.9,-24.4,-24.4Z" class="g6_1" />
<path d="M255.9,288c0,-13.5,10.9,-24.5,24.4,-24.5c13.5,0,24.5,11,24.5,24.5c0,13.5,-11,24.4,-24.5,24.4c-13.5,0,-24.4,-10.9,-24.4,-24.4Z" class="g9_1" />
<text 
x="269" 
y="298" 
dx="0" 
class="s5_1"
>S</text>

<text 
x="948" 
y="289" 
dx="0,0,0,0,0,0.8,0,0" 
class="s4_1"
>(Sensor)</text>

<path d="M944.9,243.7c0,-13.5,11,-24.5,24.5,-24.5c13.5,0,24.4,11,24.4,24.5c0,13.5,-10.9,24.4,-24.4,24.4c-13.5,0,-24.5,-10.9,-24.5,-24.4Z" class="g6_1" />
<path d="M944.9,243.7c0,-13.5,11,-24.5,24.5,-24.5c13.5,0,24.4,11,24.4,24.5c0,13.5,-10.9,24.4,-24.4,24.4c-13.5,0,-24.5,-10.9,-24.5,-24.4Z" class="g9_1" />
<text 
x="958" 
y="253" 
dx="0" 
class="s5_1"
>S</text>

<image preserveAspectRatio="none" x="724" y="215" width="55" height="112" xlink:href="1/img/2.png" />
<text 
x="738" 
y="345" 
dx="0,0.5,0.1,0.8,-0.2,0.5" 
class="s2_1"
>(User)</text>

<image preserveAspectRatio="none" x="422" y="67" width="55" height="110" xlink:href="1/img/3.png" />
<text 
x="435" 
y="196" 
dx="0,0.5,0.1,0.8,-0.2,0.5" 
class="s2_1"
>(User)</text>

<text 
x="327" 
y="197" 
dx="0,0.5,-0.2,-0.2,0.8,-0.2,-0.7,-0.2,-0.2" 
class="s2_1"
>(Machine)</text>

<path d="M322.4,177.2l56.1,0l0,-56.1l-56.1,0l0,56.1Z" class="g6_1" />
<path d="M378.5,121.1l18.7,-18.7l0,56.1l-18.7,18.7Z" class="g7_1" />
<path d="M322.4,121.1l18.7,-18.7l56.1,0l-18.7,18.7Z" class="g6_1" />
<path d="M322.4,121.1l18.7,-18.7l56.1,0l0,56.1l-18.7,18.7l-56.1,0Zm0,0l56.1,0l18.7,-18.7m-18.7,18.7l0,56.1" class="g8_1" />
<text 
x="340" 
y="157" 
dx="0" 
class="s3_1"
>M</text>

<text 
x="262" 
y="186" 
dx="0,0,0,0,0,0.8,0,0" 
class="s4_1"
>(Sensor)</text>

<path d="M260.5,139.8c0,-13.5,10.6,-24.5,23.7,-24.5c13,0,23.6,11,23.6,24.5c0,13.5,-10.6,24.4,-23.6,24.4c-13.1,0,-23.7,-10.9,-23.7,-24.4Z" class="g6_1" />
<path d="M260.5,139.8c0,-13.5,10.6,-24.5,23.7,-24.5c13,0,23.6,11,23.6,24.5c0,13.5,-10.6,24.4,-23.6,24.4c-13.1,0,-23.7,-10.9,-23.7,-24.4Z" class="g9_1" />
<text 
x="273" 
y="149" 
dx="0" 
class="s5_1"
>S</text>

<image preserveAspectRatio="none" x="672" y="0" width="57" height="110" xlink:href="1/img/4.png" />
<text 
x="686" 
y="128" 
dx="0,0.5,0.1,0.8,-0.2,0.5" 
class="s2_1"
>(User)</text>

<path d="M628.4,75.1L520.2,113.3l1.9,5.5l-14.8,-7.2l7.1,-14.8l1.9,5.5L624.6,64.1Z" class="g10_1" />
<path d="M628.4,75.1L520.2,113.3l1.9,5.5l-14.8,-7.2l7.1,-14.8l1.9,5.5L624.6,64.1Z" class="g11_1" />
<path d="M513.1,128.1L621.3,90l-1.9,-5.5l14.9,7.1l-7.2,14.9L625.2,101L517,139.1Z" class="g10_1" />
<path d="M513.1,128.1L621.3,90l-1.9,-5.5l14.9,7.1l-7.2,14.9L625.2,101L517,139.1Z" class="g11_1" />
<path d="M309,197.8l0,43.6l3.4,0l-6.8,6.9l-6.9,-6.9l3.4,0l0,-43.6Z" class="g10_1" />
<path d="M309,197.8l0,43.6l3.4,0l-6.8,6.9l-6.9,-6.9l3.4,0l0,-43.6Z" class="g12_1" />
<path d="M315.9,248.3l0,-43.6l-3.5,0l6.9,-6.9l6.9,6.9l-3.5,0l0,43.6Z" class="g10_1" />
<path d="M315.9,248.3l0,-43.6l-3.5,0l6.9,-6.9l6.9,6.9l-3.5,0l0,43.6Z" class="g12_1" />
<path d="M917.7,211L809.4,249.2l2,5.5l-14.9,-7.2l7.1,-14.8l1.9,5.5L913.8,200Z" class="g10_1" />
<path d="M917.7,211L809.4,249.2l2,5.5l-14.9,-7.2l7.1,-14.8l1.9,5.5L913.8,200Z" class="g11_1" />
<path d="M802.3,264L910.5,225.9l-1.9,-5.5l14.9,7.1l-7.1,14.9l-2,-5.5L806.2,275Z" class="g10_1" />
<path d="M802.3,264L910.5,225.9l-1.9,-5.5l14.9,7.1l-7.1,14.9l-2,-5.5L806.2,275Z" class="g11_1" />
<path d="M1047.3,100.5l-34.4,0l0,2.6l-5.3,-5.3l5.3,-5.4l0,2.7l34.4,0Z" class="g10_1" />
<path d="M1047.3,100.5l-34.4,0l0,2.6l-5.3,-5.3l5.3,-5.4l0,2.7l34.4,0Z" class="g12_1" />
<path d="M1007.6,105.4l35.1,0l0,-2.3l4.6,4.6l-4.6,4.6l0,-2.3l-35.1,0Z" class="g10_1" />
<path d="M1007.6,105.4l35.1,0l0,-2.3l4.6,4.6l-4.6,4.6l0,-2.3l-35.1,0Z" class="g12_1" />
<path d="M766,85.5l110.9,29.7l1.5,-5.6l8.2,14.2l-14.2,8.3l1.5,-5.7L763,96.7Z" class="g10_1" />
<path d="M766,85.5l110.9,29.7l1.5,-5.6l8.2,14.2l-14.2,8.3l1.5,-5.7L763,96.7Z" class="g13_1" />
<path d="M891.2,106.9L780.3,77.2l-1.5,5.7L770.5,68.6l14.3,-8.2L783.3,66L894.2,95.7Z" class="g10_1" />
<path d="M891.2,106.9L780.3,77.2l-1.5,5.7L770.5,68.6l14.3,-8.2L783.3,66L894.2,95.7Z" class="g13_1" />


<!-- Any embedded fonts defined here -->
<style type="text/css" ><![CDATA[

@font-face {
	font-family: PTSans-Regular_8;
	src: url("fonts/PTSans-Regular_8.woff") format("woff");
}

@font-face {
	font-family: ArialMT_c;
	src: url("fonts/ArialMT_c.woff") format("woff");
}

@font-face {
	font-family: Arial-BoldMT_e;
	src: url("fonts/Arial-BoldMT_e.woff") format("woff");
}

]]></style>

</svg>
