<?xml version="1.0" encoding="UTF-8" standalone="no"?>
<!DOCTYPE svg PUBLIC "-//W3C//DTD SVG 1.1//EN"
"http://www.w3.org/Graphics/SVG/1.1/DTD/svg11.dtd">


<!-- Page 1 -->
<svg x="0" y="0" width="488" height="655" viewBox="0 0 488 655" version="1.1" xmlns="http://www.w3.org/2000/svg" xmlns:xlink="http://www.w3.org/1999/xlink"
style="display: block;margin-left: auto;margin-right: auto;">
<defs>

<style type="text/css"><![CDATA[

.g1_1{
fill: #FFFFFF;
fill-opacity: 0;
}
.g2_1{
fill: #0070C0;
}
.g3_1{
fill: none;
stroke: #0D0D0D;
stroke-width: 1.5277778;
stroke-linecap: butt;
stroke-linejoin: miter;
stroke-miterlimit: 8;
}

.s1_1{
font-size: 27.50px;
font-family: PTSans-Regular_8;
fill: #FFFFFF;
}

]]></style>

</defs>
<path d="M0,0
L0,655
L488,655
L488,0 Z " 
fill="#FFFFFF" stroke="none" />
<path d="M0,655.4l488.9,0L488.9,0L0,0L0,655.4Z" class="g1_1" />
<path d="M3.8,104.7L244.4,2.3L485.1,104.7Z" class="g2_1" />
<path d="M3.8,104.7L244.4,2.3L485.1,104.7Z" class="g3_1" />
<text 
x="168" 
y="87" 
dx="0,-0.5,0.4,-0.2,0.2,0.3,0.7,0.5,0.5,-0.2,-0.2" 
class="s1_1"
>Open Source</text>

<path d="M3.8,285.2c0,-6.1,4.9,-11,11,-11l459.3,0c6.1,0,11,4.9,11,11l0,43.8c0,6,-4.9,10.9,-11,10.9l-459.3,0C8.7,339.9,3.8,335,3.8,329Z" class="g2_1" />
<path d="M3.8,285.2c0,-6.1,4.9,-11,11,-11l459.3,0c6.1,0,11,4.9,11,11l0,43.8c0,6,-4.9,10.9,-11,10.9l-459.3,0C8.7,339.9,3.8,335,3.8,329Z" class="g3_1" />
<text 
x="152" 
y="315" 
dx="0,0.3,0.5,-0.2,0.5,0.6,-0.2,0.2,-0.1,0.1,-0.1,0.3,0.5" 
class="s1_1"
>Documentation</text>

<path d="M3.8,461.6c0,-13.2,10.7,-23.9,24,-23.9l433.3,0c13.3,0,24,10.7,24,23.9l0,95.8c0,13.2,-10.7,23.9,-24,23.9l-433.3,0c-13.3,0,-24,-10.7,-24,-23.9Z" class="g2_1" />
<path d="M3.8,461.6c0,-13.2,10.7,-23.9,24,-23.9l433.3,0c13.3,0,24,10.7,24,23.9l0,95.8c0,13.2,-10.7,23.9,-24,23.9l-433.3,0c-13.3,0,-24,-10.7,-24,-23.9Z" class="g3_1" />
<text 
x="176" 
y="501" 
dx="0,-0.4,0.5,0.6,0.6,0.5,0.2,0.3,-0.1" 
class="s1_1"
>Community</text>

<text 
x="57" 
y="533" 
dx="0,-0.1,-0.1,-0.2,0.1,-0.4,-0.2,0.2,-0.6,1.8,-0.4,0.5,0.5,0.4,-0.2,-0.2,0.1,-0.2,0.3,0.5,0.2,-2.8,-0.4,-0.2,0.2,-0.2,0.1,-0.4,0.3,-0.2,-0.6" 
class="s1_1"
>(Healthy Cooperation Mentality)</text>

<path d="M3.8,140.8c0,-13.2,10.7,-23.9,24,-23.9l184.3,0c13.2,0,23.9,10.7,23.9,23.9l0,95.8c0,13.2,-10.7,23.9,-23.9,23.9l-184.3,0c-13.3,0,-24,-10.7,-24,-23.9Z" class="g2_1" />
<path d="M3.8,140.8c0,-13.2,10.7,-23.9,24,-23.9l184.3,0c13.2,0,23.9,10.7,23.9,23.9l0,95.8c0,13.2,-10.7,23.9,-23.9,23.9l-184.3,0c-13.3,0,-24,-10.7,-24,-23.9Z" class="g3_1" />
<text 
x="46" 
y="164" 
dx="0,-0.5,0.4,-0.2,0.2,0.2,-0.2,0.7,0.7,-1.2,-0.1,0.5" 
class="s1_1"
>Openness to </text>

<text 
x="41" 
y="196" 
dx="0,-0.4,-0.2,0.3,-0.1,0.3,-0.2,0.3,0.6,0.6,-1.2,0.1,0.2,0.5" 
class="s1_1"
>Criticism and </text>

<text 
x="60" 
y="230" 
dx="0,0.5,-0.4,-0.1,-0.2,0.2,0.6,0.3,0.5" 
class="s1_1"
>Extension</text>

<path d="M252.8,140.8c0,-13.2,10.8,-23.9,24,-23.9l184.3,0c13.3,0,24,10.7,24,23.9l0,95.8c0,13.2,-10.7,23.9,-24,23.9l-184.3,0c-13.2,0,-24,-10.7,-24,-23.9Z" class="g2_1" />
<path d="M252.8,140.8c0,-13.2,10.8,-23.9,24,-23.9l184.3,0c13.3,0,24,10.7,24,23.9l0,95.8c0,13.2,-10.7,23.9,-24,23.9l-184.3,0c-13.2,0,-24,-10.7,-24,-23.9Z" class="g3_1" />
<text 
x="278" 
y="148" 
dx="0,-0.4,0.5,0.2,-0.1,-0.2,0.3,0.4,0.5,-0.1,0.3,0.5,0.2,-1.2,-0.1,0.5" 
class="s1_1"
>Contribution to </text>

<text 
x="293" 
y="180" 
dx="0,-0.1,0.5,0.6,0.1,0.2,0.6,0.3,0.2,0.5,0.7" 
class="s1_1"
>Humankinds </text>

<text 
x="300" 
y="213" 
dx="0,-3,-0.2,-0.2,0.2,0.2,0.5,-0.4,0.5,0.5,-0.6" 
class="s1_1"
>Technology </text>

<text 
x="336" 
y="245" 
dx="0,0.7,-0.1,0.1,-0.2" 
class="s1_1"
>Stack</text>

<path d="M3.8,366.4c0,-6.2,5,-11.2,11.2,-11.2l458.9,0c6.2,0,11.2,5,11.2,11.2l0,44.8c0,6.2,-5,11.2,-11.2,11.2L15,422.4c-6.2,0,-11.2,-5,-11.2,-11.2Z" class="g2_1" />
<path d="M3.8,366.4c0,-6.2,5,-11.2,11.2,-11.2l458.9,0c6.2,0,11.2,5,11.2,11.2l0,44.8c0,6.2,-5,11.2,-11.2,11.2L15,422.4c-6.2,0,-11.2,-5,-11.2,-11.2Z" class="g3_1" />
<text 
x="213" 
y="397" 
dx="0,-0.4,0.5,0.5" 
class="s1_1"
>Code</text>

<image preserveAspectRatio="none" x="266" y="590" width="218" height="65" xlink:href="1/img/1.png" />


<!-- Any embedded fonts defined here -->
<style type="text/css" ><![CDATA[

@font-face {
	font-family: PTSans-Regular_8;
	src: url("fonts/PTSans-Regular_8.woff") format("woff");
}

]]></style>

</svg>
