<?xml version="1.0" encoding="UTF-8" standalone="no"?>
<!DOCTYPE svg PUBLIC "-//W3C//DTD SVG 1.1//EN"
"http://www.w3.org/Graphics/SVG/1.1/DTD/svg11.dtd">


<!-- Page 1 -->
<svg x="0" y="0" width="1313" height="722" viewBox="0 0 1313 722" version="1.1" xmlns="http://www.w3.org/2000/svg" xmlns:xlink="http://www.w3.org/1999/xlink"
style="display: block;margin-left: auto;margin-right: auto;">
<defs>

<style type="text/css"><![CDATA[

.g1_1{
fill: #FFFFFF;
fill-opacity: 0;
}
.g2_1{
fill: #0070C0;
}
.g3_1{
fill: none;
stroke: #000000;
stroke-width: 1.5277778;
stroke-linecap: butt;
stroke-linejoin: miter;
stroke-miterlimit: 8;
}
.g4_1{
fill: #D8E0E3;
}
.g5_1{
fill: none;
stroke: #58A8DB;
stroke-width: 3.0555556;
stroke-linecap: butt;
stroke-linejoin: round;
}
.g6_1{
fill: #58A8DB;
}
.g7_1{
fill: none;
stroke: #FFFFFF;
stroke-width: 4.5833335;
stroke-linecap: butt;
stroke-linejoin: round;
}
.g8_1{
fill: #007FC3;
}
.g9_1{
fill: none;
stroke: #000000;
stroke-width: 1.5277778;
stroke-linecap: butt;
stroke-linejoin: round;
}

.s1_1{
font-size: 27.50px;
font-family: PTSans-Regular_8;
fill: #FFFFFF;
}
.s2_1{
font-size: 61.11px;
font-family: Verdana-Bold_9;
fill: #000000;
}
.s3_1{
font-size: 16.81px;
font-family: Helvetica_c;
fill: #000000;
}
.s4_1{
font-size: 18.33px;
font-family: Helvetica_c;
fill: #FFFFFF;
}
.s5_1{
font-size: 27.50px;
font-family: ArialMT_l;
fill: #000000;
}
.s6_1{
font-size: 24.44px;
font-family: PTSans-Regular_8;
fill: #FFFFFF;
}

]]></style>

</defs>
<path d="M0,0
L0,722
L1313,722
L1313,0 Z " 
fill="#FFFFFF" stroke="none" />
<path d="M0,722.6l1313.9,0L1313.9,0L0,0L0,722.6Z" class="g1_1" />
<path d="M711.2,272.7l233.7,0l33.6,33.6l-33.6,33.6l-233.7,0Z" class="g2_1" />
<path d="M711.2,272.7l233.7,0l33.6,33.6l-33.6,33.6l-233.7,0Z" class="g3_1" />
<text 
x="778" 
y="314" 
dx="0,0.7,0.4,0.6,-0.2,0.5,-0.4,-0.4,-0.2" 
class="s1_1"
>Ausrollen</text>

<text 
x="93" 
y="117" 
dx="0,-2.9,-2.6" 
class="s2_1"
>Mit</text>

<image preserveAspectRatio="none" x="220" y="0" width="567" height="171" xlink:href="1/img/1.png" />
<path d="M990,375.8l120.7,0l0,-82.5l-120.7,0l0,82.5Z" class="g4_1" />
<path d="M990,293.3l120.7,0l0,82.5l-120.7,0l0,-82.5Z" class="g5_1" />
<text 
x="1013" 
y="366" 
dx="0,0.1,-0.2,-0.2,-0.1,-0.2,-0.7,-0.2,-0.2" 
class="s3_1"
>Container</text>

<image preserveAspectRatio="none" x="988" y="295" width="121" height="63" xlink:href="1/img/2.png" />
<image preserveAspectRatio="none" x="993" y="303" width="110" height="51" xlink:href="1/img/3.png" />
<path d="M998.4,344.5l100.8,0l0,-42.8l-100.8,0l0,42.8Z" class="g6_1" />
<path d="M998.4,301.7l100.8,0l0,42.8l-100.8,0l0,-42.8Z" class="g7_1" />
<text 
x="1012" 
y="329" 
dx="0,0.5,0.5,-0.5,0.5,0,0.5" 
class="s4_1"
>DataApp</text>

<path d="M998.4,306.1c0,-1.6,2.7,-2.8,6.1,-2.8c3.4,0,6.1,1.2,6.1,2.8l0,11.2c0,1.5,-2.7,2.8,-6.1,2.8c-3.4,0,-6.1,-1.3,-6.1,-2.8Z" class="g8_1" />
<path d="M1010.6,306.1c0,1.5,-2.7,2.8,-6.1,2.8c-3.4,0,-6.1,-1.3,-6.1,-2.8" class="g9_1" />
<path d="M998.4,306.1c0,-1.6,2.7,-2.8,6.1,-2.8c3.4,0,6.1,1.2,6.1,2.8l0,11.2c0,1.5,-2.7,2.8,-6.1,2.8c-3.4,0,-6.1,-1.3,-6.1,-2.8Z" class="g9_1" />
<image preserveAspectRatio="none" x="934" y="37" width="896" height="510" xlink:href="1/img/4.png" />
<path d="M1049.6,294l4.6,0.2l0.3,-5.2l0.8,-5.1l3.4,-10.1l5.3,-9.3l6.8,-8.5l8,-7.1l9.1,-5.5l4.6,-2l4.8,-1.5l4.9,-0.9l4.9,-0.3l4.9,0.3l4.9,0.7l9.6,3.1l9,4.6l8,6.1l6.8,7.1l5.2,8l3.3,8.4l0.9,4.2l0.3,4.3l-0.3,4.4l-0.8,4.2l-3,8.5l-4.7,7.9l-6.2,7.2l-7.3,6l-8.1,4.6l-4.4,1.3l-0.8,-4.2l-12.3,9.3l14.8,4.2l-0.9,-4.7l5.5,-1.6l8.8,-5.1l7.9,-6.5l6.7,-7.8l5.2,-8.6l3.3,-9.3l0.9,-4.9l0.3,-4.9l-0.4,-4.9l-0.9,-4.9l-3.7,-9.3l-5.7,-8.6l-7.3,-7.8l-8.7,-6.5l-9.7,-5l-10.3,-3.2l-5.4,-0.9l-5.4,-0.3l-5.5,0.4l-5.4,1l-5.3,1.6l-5.1,2.2l-9.7,5.9l-8.6,7.6l-7.3,9.1l-5.7,10.1l-3.6,10.8l-1,5.6Z" class="g2_1" />
<text 
x="1144" 
y="242" 
dx="0,0,0,0,0,0,0,0,0,0,0,0" 
class="s5_1"
>Zurückrollen</text>

<image preserveAspectRatio="none" x="75" y="272" width="182" height="183" xlink:href="1/img/5.png" />
<path d="M529.4,271.2l206.2,0l33.6,33.6l-33.6,33.6l-206.2,0Z" class="g2_1" />
<path d="M529.4,271.2l206.2,0l33.6,33.6l-33.6,33.6l-206.2,0Z" class="g3_1" />
<text 
x="601" 
y="313" 
dx="0,-3,-0.2,0.6,-0.2,-0.2" 
class="s1_1"
>Testen</text>

<path d="M318.5,271.2l232.3,0l33.6,33.6l-33.6,33.6l-232.3,0Z" class="g2_1" />
<path d="M318.5,271.2l232.3,0l33.6,33.6l-33.6,33.6l-232.3,0Z" class="g3_1" />
<text 
x="403" 
y="298" 
dx="0,-0.5,0.1,0.6,-0.2,0.4" 
class="s6_1"
>Bauen/</text>

<text 
x="403" 
y="327" 
dx="0,0.4,0.1,0.6,-0.2,-0.2" 
class="s6_1"
>Kaufen</text>

<path d="M711.2,385.8l-358.3,0l-34.4,34.3l34.4,34.4l358.3,0Z" class="g2_1" />
<path d="M711.2,385.8l-358.3,0l-34.4,34.3l34.4,34.4l358.3,0Z" class="g3_1" />
<text 
x="414" 
y="428" 
dx="0,-0.5,-0.2,-0.2,0.5,0.4,0.1,-0.2,0.6,-1.2,-0.2,-0.2,0.2,0.1,-0.4,-0.2,-0.2" 
class="s1_1"
>Feedback erhalten</text>

<path d="M919,385.8l-228.4,0l-34.4,34.3l34.4,34.4l228.4,0Z" class="g2_1" />
<path d="M919,385.8l-228.4,0l-34.4,34.3l34.4,34.4l228.4,0Z" class="g3_1" />
<text 
x="724" 
y="428" 
dx="0,0.7,-0.2,0.5,0.4,0.1,-0.2,0.2,-0.2,-0.2" 
class="s1_1"
>Beobachten</text>

<text 
x="16" 
y="493" 
dx="0,0,0,0,0,0,0,0,0,0,0,0,0,0,0,0,0,0,0,0,0" 
class="s5_1"
>Experimentierfreudige</text>

<text 
x="99" 
y="525" 
dx="0,0,0,0,0,0,0,0" 
class="s5_1"
>Experten</text>

<text 
x="309" 
y="601" 
dx="0,0,0,0,0,0,0,0,0,0,0,0,0,0,0,0.8,0,0,0,0,0,0,0,0,0,0" 
class="s5_1"
>DevOps auf dem Hallenboden</text>

<text 
x="529" 
y="633" 
dx="0,0,0,0,0,0.7,0,0,0,0,0.7,0,0,0,0,0,0,0,0,0,0,0,0" 
class="s5_1"
>ohne hohe Investition, </text>

<text 
x="639" 
y="666" 
dx="0,0,0,0,0.8,0,0,0,0,0,0.8,0,0,0,0,0,0,0,0,0.7,0,0,0,0,0" 
class="s5_1"
>mit einem leichten Start </text>

<text 
x="749" 
y="699" 
dx="0,0,0,0,0,0,0,0,0,0,0,0,0,0.7,0,0,0,0,0" 
class="s5_1"
>und geringes Risiko</text>



<!-- Any embedded fonts defined here -->
<style type="text/css" ><![CDATA[

@font-face {
	font-family: Verdana-Bold_9;
	src: url("fonts/Verdana-Bold_9.woff") format("woff");
}

@font-face {
	font-family: Helvetica_c;
	src: url("fonts/Helvetica_c.woff") format("woff");
}

@font-face {
	font-family: ArialMT_l;
	src: url("fonts/ArialMT_l.woff") format("woff");
}

@font-face {
	font-family: PTSans-Regular_8;
	src: url("fonts/PTSans-Regular_8.woff") format("woff");
}

]]></style>

</svg>
